<svg xmlns="http://www.w3.org/2000/svg" viewBox="0 0 900.92 712.1"><defs><style>.cls-1{fill:#fffd4c;}.cls-2{font-size:300px;}.cls-2,.cls-3{fill:#4d4d4d;}.cls-2,.cls-5{font-family:OpenSans-Regular, Open Sans;}.cls-4{fill:#fff;}.cls-5{font-size:48px;fill:#ff4161;}</style></defs><g id="Layer_2" data-name="Layer 2"><g id="Layer_1-2" data-name="Layer 1"><path class="cls-1" d="M102.37,80.93c-59.75,19.45-86.37,81-89.5,88.5-4.38,10.55-24.09,61.2-4,114,27.6,72.53,98.28,65,112,121s-52.35,81.94-48,164c.41,7.69,4.23,64.48,46,104,62.31,59,172.87,45.25,240,4,48.92-30,40.7-53.77,82-71,76.13-31.74,124.55,40.32,216,27,75.91-11,146.63-75.84,172-144,33.8-90.79-33.23-132.89,7-230,25.67-61.94,66.71-78,65-134-1.68-54.91-42.77-90.45-47-94-51.46-43.14-127.3-35.67-172-7-35.39,22.71-27,43.14-55,55-55,23.33-92.28-53.51-199-60-66.85-4.06-127.56,21.52-131,23-34,14.72-35.21,23.66-65,33C171.93,93.23,151,65.12,102.37,80.93Z"/><text class="cls-2" transform="translate(150.37 302.43)">4</text><text class="cls-2" transform="translate(570.37 302.43)">4</text><path class="cls-3" d="M647.25,410.83,517.46,266.35c.17-.17.33-.35.49-.53A99.37,99.37,0,1,0,495,284.77L625.67,430.21a6.79,6.79,0,0,0,9.59.51l11.47-10.3A6.8,6.8,0,0,0,647.25,410.83ZM443.84,285.93a86.5,86.5,0,1,1,86.5-86.5A86.5,86.5,0,0,1,443.84,285.93Z"/><circle class="cls-4" cx="443.84" cy="199.43" r="86.5"/><text class="cls-5" transform="translate(383.08 482.32)">Oops!</text></g></g></svg>