<svg xmlns="http://www.w3.org/2000/svg" viewBox="0 0 978.14 723.72"><defs><style>.cls-1{fill:#fffd4c;}.cls-2{fill:#4d4d4d;}.cls-3{fill:#adf546;stroke:#000;stroke-width:0.76px;}.cls-3,.cls-4,.cls-5,.cls-9{stroke-miterlimit:10;}.cls-4,.cls-5,.cls-9{fill:none;}.cls-4,.cls-5{stroke:#fff5b3;}.cls-4{stroke-width:8.98px;}.cls-5{stroke-width:8.76px;}.cls-6{fill:#ffd09c;}.cls-7{font-size:83px;font-family:OpenSans-Regular, Open Sans;}.cls-8{fill:#c1272d;}.cls-9{stroke:#c1272d;stroke-width:3px;}</style></defs><g id="Layer_2" data-name="Layer 2"><g id="Drawing"><path class="cls-1" d="M116.6,78.75C73.09,90.2,32.39,123.82,13,167.26c-24.24,54.16-7.93,106.86-3,122,22.88,70.27,69.78,68.81,79,122,10.58,61.05-47.8,82.69-45,155,2,52.52,35.13,100.58,72,127,81.05,58.07,195.65,22.52,257.15-19,38-25.68,53.61-47.4,82-71,28.85-24,62-26.25,83.85-24,58,6,72.46,28.8,132.15,51,25.4,9.44,120.84,39.19,205.85-5,42.14-21.91,91.5-69.24,100-130,11.62-83.07-65.52-102.72-67-205-1.12-77.26,42.39-100.46,24-169-2.62-9.76-17.15-60.16-65.85-93-52.33-35.31-124.65-37.38-172-7-35.4,22.7-27,43.13-55,55-55,23.32-92.28-53.52-199-60-66.86-4.06-127.57,21.51-131,23-34,14.71-35.21,23.65-65,33C187.64,90.58,167.14,65.44,116.6,78.75Z"/><path class="cls-2" d="M458,285.26l-.89.62.75-.84Z"/><path class="cls-2" d="M458,285.26l-.89.62.75-.84Z"/><path class="cls-3" d="M813,360.16a117,117,0,0,1-18.54,64l0-.07A117.51,117.51,0,1,1,596.81,296.88l0,.07A117.48,117.48,0,0,1,813,360.16Z"/><path class="cls-4" d="M615,445.26c14-12.51,50.14-49.77,40.53-106.6a108.17,108.17,0,0,0-6-21.59A119.11,119.11,0,0,0,640,298.26a138.92,138.92,0,0,0-20.92-26.07l-.66-.66"/><path class="cls-5" d="M763.59,280.52c-7.63,7.2-28,28.48-33,63.22-8.48,59.84,36.88,103.51,40,106.43"/><path class="cls-6" d="M959.38,392.4c0,1.2,0,2.39,0,3.59l-.38.27C959.09,395,959.24,393.69,959.38,392.4Z"/><path class="cls-6" d="M851.14,429.69c4.61,21.48,7.18,32.27-8.19,44.57-25,20-37,13-70,68-8.29,13.8-35.93,1.49-46-11-8.77-10.88-10.17-28.57-2.86-45.67A25.28,25.28,0,0,1,738,472a116,116,0,0,0,54.1-171.26c-9.15-14-29.09-15.21-40.29-2.81-18,19.88-30.81,24.1-49.81,22.3-10.87-1-19.5-7.5-19.5-7.5a38.72,38.72,0,0,1-11-13,64.15,64.15,0,0,1-15.61,13.61c-6.78,4.19-17.38,10.31-28.89,8.89-12.26-1.51-22.81-9.46-29-21,.31.68.27,1.28.62,1.94a116.31,116.31,0,0,0-14.8,92.69c-27.64,14.5-56.94,10.58-69.82-5.63-11.21-14.11-7.5-34.45-7-37,3.14-16,11.87-18.78,22-36,17-28.94,5.84-43.91,20-65,6.45-9.61,22.08-21.87,49.71-28.92q1.46-12.89,2.9-25.79A25.58,25.58,0,0,1,614.68,178,128.91,128.91,0,0,1,659,163.26a127,127,0,0,1,20.82-1.16,25.58,25.58,0,0,1,21,11.82L707.81,185l-.75.84.89-.62-.14-.22,9.88-11.12a25.55,25.55,0,0,1,27.09-7.27c12.53,4.13,23.1,7.3,31.17,9.61,20.32,5.82,27.92,7.15,36,14,12.79,10.85,16.67,27,18,38,5.2,2.24,56.92,25.58,69,82C908.44,354.61,889.64,401.63,851.14,429.69Z"/><path d="M851.32,429.76c.2.76.37,1.45.54,2.24l.53,2.35,1,4.71a89.57,89.57,0,0,1,1.53,9.55,33.06,33.06,0,0,1-.36,9.72,23.22,23.22,0,0,1-4,8.94,37.92,37.92,0,0,1-6.74,7.06c-2.5,2.06-5.07,4-7.73,5.85-5.3,3.7-10.95,6.84-16.4,10.17a90.12,90.12,0,0,0-15.2,11.46,117.6,117.6,0,0,0-12.67,14.25c-3.89,5.06-7.5,10.34-11,15.72-.88,1.34-1.72,2.7-2.56,4.06s-1.69,2.72-2.51,4.1l-1.24,2-.63,1a11.74,11.74,0,0,1-.74,1.1,12.9,12.9,0,0,1-4,3.51,18.46,18.46,0,0,1-10,2,37.47,37.47,0,0,1-9.79-1.95,58,58,0,0,1-17.31-9.36,39.05,39.05,0,0,1-7.06-7.07,34.85,34.85,0,0,1-4.73-8.86A45.71,45.71,0,0,1,718,502.76a59.34,59.34,0,0,1,5.14-19.07,27.08,27.08,0,0,1,6.12-8.16,26.72,26.72,0,0,1,4.1-3.07c.73-.44,1.48-.85,2.26-1.22s1.6-.71,2.29-1a114.61,114.61,0,0,0,32.13-19.89A116.35,116.35,0,0,0,794,421.11a114.14,114.14,0,0,0,13.16-35.39,115.74,115.74,0,0,0,2-18.85,112.12,112.12,0,0,0-1.05-18.94,113.73,113.73,0,0,0-11.31-36.11c-1.43-2.83-3-5.6-4.66-8.3l-1.27-2c-.43-.62-.85-1.26-1.33-1.85a23.35,23.35,0,0,0-3.15-3.29,24,24,0,0,0-16.92-5.69,24.4,24.4,0,0,0-16.36,7.43A109.9,109.9,0,0,1,739,311.38a47.83,47.83,0,0,1-17.45,8.71,57.32,57.32,0,0,1-19.44,1,43,43,0,0,1-18.33-6.51,38.34,38.34,0,0,1-13-14.47l1.17.12a65.54,65.54,0,0,1-17,14.46c-6.32,3.84-13.22,7.23-20.75,8.16a31.46,31.46,0,0,1-5.66.18,26.55,26.55,0,0,1-2.81-.32c-.93-.12-1.85-.33-2.77-.54a35.75,35.75,0,0,1-10.41-4.28,42.53,42.53,0,0,1-15.21-16.29l1.2-.6a5.67,5.67,0,0,1,.34,1.1,2.89,2.89,0,0,0,.26.8l.19.35-.22.34q-3.23,5.06-6,10.4c-1.78,3.58-3.42,7.24-4.86,11A115.41,115.41,0,0,0,581,372a115.91,115.91,0,0,0,3.75,23.63l.2.75-.69.37a76.81,76.81,0,0,1-34.5,9.25,56.43,56.43,0,0,1-17.9-2.49,40.94,40.94,0,0,1-15.8-9,35,35,0,0,1-9.47-15.63,53.44,53.44,0,0,1-2-18.07A45.07,45.07,0,0,1,508.68,343a44.56,44.56,0,0,1,5-7.74c1.85-2.39,3.78-4.63,5.6-6.93,7.29-9.09,13.18-19.4,16.22-30.56a103.87,103.87,0,0,0,2.88-17.22c.62-5.87,1.3-12,3.32-17.83a48.1,48.1,0,0,1,3.81-8.4,43.84,43.84,0,0,1,5.37-7.52,66.72,66.72,0,0,1,14.06-11.63c10.29-6.43,21.67-10.74,33.27-13.77l-1.49,1.71,2.15-19.44.54-4.86a36,36,0,0,1,.81-5.09,27.36,27.36,0,0,1,4.43-9.52,27.73,27.73,0,0,1,7.65-7.19c1.55-1,3-1.68,4.43-2.45s3-1.5,4.45-2.2a129.23,129.23,0,0,1,57.79-12.43c.81,0,1.71.07,2.59.12s1.75.18,2.62.36a26.49,26.49,0,0,1,5.08,1.44,28,28,0,0,1,8.92,5.6,29.35,29.35,0,0,1,3.49,4c1,1.5,1.84,2.81,2.73,4.2l5.24,8.26.87,1.36-1.08,1.19-.75.84-2.8-3.16.89-.61-.51,3-.14-.22-.92-1.45,1.06-1.19,6.62-7.43,3.32-3.71a27.74,27.74,0,0,1,29.46-7.72l4.71,1.54,9.46,3q9.48,3,19,5.68c6.36,1.86,12.76,3.52,19.17,5.66a51.08,51.08,0,0,1,9.45,4.12,40.27,40.27,0,0,1,8.22,6.37,51,51,0,0,1,11.16,17.18,76.88,76.88,0,0,1,4.83,19.72l-1-1.36a115,115,0,0,1,13.82,7.4,141.7,141.7,0,0,1,12.8,8.95,128.16,128.16,0,0,1,22,22.06,111,111,0,0,1,15.49,27.06,109,109,0,0,1,7.2,30.28A115.29,115.29,0,0,1,890.82,383a123.39,123.39,0,0,1-16.83,26,125.68,125.68,0,0,1-10.73,11.16A117.46,117.46,0,0,1,851.32,429.76Zm-.37-.14a139.63,139.63,0,0,0,11.83-10,128,128,0,0,0,10.46-11.27,122.24,122.24,0,0,0,16.27-26,114.75,114.75,0,0,0,10.22-59.67,107,107,0,0,0-7.38-29.53,108.39,108.39,0,0,0-15.41-26.2,125.94,125.94,0,0,0-21.67-21.37,138.56,138.56,0,0,0-12.56-8.66,113.41,113.41,0,0,0-13.44-7.07l-.9-.39-.12-1a72.82,72.82,0,0,0-4.73-18.78,47.33,47.33,0,0,0-10.47-15.9,36.3,36.3,0,0,0-7.5-5.73,46.5,46.5,0,0,0-8.79-3.75c-6.19-2-12.65-3.66-19-5.47s-12.79-3.68-19.14-5.64l-9.51-3-4.74-1.54a25.31,25.31,0,0,0-4.47-1,23.33,23.33,0,0,0-17.23,4.56,23.86,23.86,0,0,0-3.35,3.08L716,179l-6.6,7.45.15-2.65.14.22,1.15,1.81L709.16,187l-.89.62L693.43,198l12-13.54.75-.84-.21,2.56-5.26-8.24c-.87-1.35-1.77-2.82-2.59-4a26.28,26.28,0,0,0-2.95-3.37,23.92,23.92,0,0,0-7.54-4.74,22,22,0,0,0-4.3-1.21c-.73-.16-1.48-.22-2.22-.31s-1.48-.1-2.3-.11a124.6,124.6,0,0,0-38,5.14,129.92,129.92,0,0,0-18,6.82q-2.17,1-4.32,2.12c-1.41.73-2.89,1.5-4.13,2.25a23.58,23.58,0,0,0-6.53,6.1,23.33,23.33,0,0,0-3.8,8.08,32.41,32.41,0,0,0-.74,4.56l-.55,4.85-2.23,19.43-.15,1.36-1.33.34c-11.31,2.91-22.35,7.05-32.21,13.16a63.37,63.37,0,0,0-13.28,10.89,39.92,39.92,0,0,0-5,6.89,44.26,44.26,0,0,0-3.55,7.73c-1.87,5.38-2.57,11.14-3.2,17a105.24,105.24,0,0,1-3.1,17.76,78.46,78.46,0,0,1-6.93,16.75,99.64,99.64,0,0,1-10.13,14.92c-3.75,4.67-7.79,8.94-10.28,14A42.17,42.17,0,0,0,507.56,361a51.14,51.14,0,0,0,1.75,17.09,32.27,32.27,0,0,0,8.57,14.51,38.42,38.42,0,0,0,14.71,8.58,54.42,54.42,0,0,0,17.12,2.56,74.56,74.56,0,0,0,33.6-8.68l-.5,1.12a117.83,117.83,0,0,1-3.59-24,118.94,118.94,0,0,1,1.42-24.24A116.81,116.81,0,0,1,587,324.43c1.46-3.78,3.13-7.47,4.95-11.09s3.9-7.1,6.09-10.51l0,.68a4.18,4.18,0,0,1-.38-1.13,4.46,4.46,0,0,0-.25-.84l1.2-.6a41.22,41.22,0,0,0,14.69,15.84,34.27,34.27,0,0,0,10,4.17,26.81,26.81,0,0,0,2.67.53,24.54,24.54,0,0,0,2.7.32,28.16,28.16,0,0,0,5.43-.17c7.25-.92,14-4.25,20.22-8.08a64.11,64.11,0,0,0,16.62-14.24l.67-.81.49.93a36.81,36.81,0,0,0,12.52,13.86,41.25,41.25,0,0,0,17.68,6.2,54.69,54.69,0,0,0,18.85-1.12,45.84,45.84,0,0,0,16.68-8.57,106.57,106.57,0,0,0,13.75-13.23,26.79,26.79,0,0,1,17.82-8.32,26.54,26.54,0,0,1,18.77,6.11,25.77,25.77,0,0,1,3.54,3.62c.54.65,1,1.35,1.5,2l1.33,2.05c1.73,2.75,3.36,5.56,4.86,8.44a116.78,116.78,0,0,1,12,37,114.31,114.31,0,0,1,1.2,19.48,118.39,118.39,0,0,1-2,19.42A117,117,0,0,1,772.37,453a118.07,118.07,0,0,1-33.17,20.35c-.78.33-1.43.58-2.11.92s-1.34.68-2,1.06A23.13,23.13,0,0,0,731.5,478a23.48,23.48,0,0,0-5.41,7.14,56.22,56.22,0,0,0-4.91,17.94,42.65,42.65,0,0,0,2,18.32,31.64,31.64,0,0,0,4.27,8.09A36.19,36.19,0,0,0,734,536a55.74,55.74,0,0,0,16.34,9,35.15,35.15,0,0,0,9,1.91,15.85,15.85,0,0,0,8.61-1.6,10,10,0,0,0,3.21-2.77c.22-.28.42-.58.62-.89l.63-1,1.26-2.06c.84-1.37,1.7-2.74,2.57-4.09s1.73-2.72,2.62-4.06c3.54-5.39,7.25-10.68,11.24-15.77a119.12,119.12,0,0,1,13-14.37,89.19,89.19,0,0,1,15.67-11.48c5.56-3.28,11.2-6.29,16.5-9.86q4-2.66,7.73-5.65a36.67,36.67,0,0,0,6.63-6.72,22.11,22.11,0,0,0,3.92-8.49,32.81,32.81,0,0,0,.52-9.45,93.09,93.09,0,0,0-1.32-9.5Z"/><path class="cls-6" d="M510,386.26c-.5-9.5,1.94-25.79,25.5-30.5,10-2,17-1.38,21,0"/><path d="M509.7,386.27a26.88,26.88,0,0,1,1.67-16.71,24.56,24.56,0,0,1,5.07-7.19,27.34,27.34,0,0,1,7.19-5,32.63,32.63,0,0,1,8.17-2.59,74.51,74.51,0,0,1,8.33-.94c2.77-.16,5.54-.21,8.31-.1a31.38,31.38,0,0,1,8.27,1.28l-.52,1.5a24.54,24.54,0,0,0-7.8-1.24,36.88,36.88,0,0,0-8,.83,56.44,56.44,0,0,0-14.79,5.24,31.58,31.58,0,0,0-6.22,4.2,28.48,28.48,0,0,0-2.6,2.67,27.8,27.8,0,0,0-2.17,3.07,29.67,29.67,0,0,0-3,7.07,48.81,48.81,0,0,0-1.44,7.9Z"/><path class="cls-6" d="M599,220.26c-.93,9.85-1.12,22.69-1.5,33.5-.61,17.26-.34,33.48.5,48.5"/><path d="M599,220.26a4,4,0,0,1,1.45,1.41,2.15,2.15,0,0,1,.27,1.3l-.09,2.54-.12,5.09c-.08,3.4-.17,6.8-.31,10.21-.26,6.82-.67,13.69-.89,20.48s-.19,13.62-.24,20.44.12,13.62-.54,20.5l-1.07.06c-1.41-6.78-1.7-13.65-2-20.5s-.22-13.72-.15-20.59l.34-20.53q.12-5.14.49-10.29c.11-1.71.27-3.43.46-5.14l.28-2.58a2.17,2.17,0,0,1,.49-1.26A3.77,3.77,0,0,1,599,220.26Z"/><path class="cls-6" d="M597.45,291.76s29,27,54-4"/><path d="M599.15,289.93c.76.75,1.75,1.59,2.68,2.34s2,1.48,3,2.18a46.56,46.56,0,0,0,6.42,3.62,34.15,34.15,0,0,0,14.25,3.3,29.62,29.62,0,0,0,14.28-3.87,45.38,45.38,0,0,0,11.7-9.74,46,46,0,0,1-11.05,10.81,31.65,31.65,0,0,1-14.81,5.3,37.32,37.32,0,0,1-15.79-2.33,50.14,50.14,0,0,1-7.29-3.37c-1.17-.67-2.32-1.36-3.44-2.11a40.73,40.73,0,0,1-3.33-2.47Z"/><path class="cls-6" d="M699.45,192.76c-12.53,10-26.1,30.31-26.27,46.35-.25,22.88-1.49,37.77-1.73,60.65"/><path d="M699.9,193.32a75.76,75.76,0,0,0-9.77,10.33,87.09,87.09,0,0,0-7.94,11.78,69.73,69.73,0,0,0-5.67,12.9L676,230c-.14.57-.26,1.13-.4,1.7s-.27,1.13-.37,1.7l-.25,1.71a28.51,28.51,0,0,0-.29,3.43c-.07,1.15,0,2.4-.06,3.59q-.28,14.44-1,28.85l-.72,14.39c-.27,4.8-.44,9.6-.66,14.4l-1.52,0c-.12-4.81-.09-9.63-.07-14.44s.18-9.63.3-14.43c.27-9.62.64-19.2.72-28.8,0-1.21,0-2.37.1-3.62a30.92,30.92,0,0,1,.35-3.75l.29-1.85c.12-.61.28-1.21.42-1.82s.28-1.2.44-1.8l.56-1.77a64.07,64.07,0,0,1,6.12-13.35A78.19,78.19,0,0,1,699,192.19Z"/><path class="cls-6" d="M752.58,296.57s6.87-2.81,12.87-39.81"/><path d="M752.54,296.48a8,8,0,0,0,1.51-2.05c.42-.76.78-1.54,1.14-2.33.67-1.59,1.31-3.2,1.86-4.85,1.14-3.28,2.37-6.57,3.36-9.94s1.86-6.79,2.65-10.22,1.55-6.89,2.29-10.35l.2,0c-.47,3.51-.92,7-1.51,10.51s-1.28,7-2.09,10.44c-.37,1.73-.85,3.45-1.27,5.18l-.8,2.57c-.27.85-.63,1.67-1,2.51a34.68,34.68,0,0,1-2.49,4.8l-.78,1.12c-.27.36-.57.71-.86,1.06a6.5,6.5,0,0,1-2.18,1.7Z"/><path class="cls-6" d="M761.35,276.66s8.58-1.4,13.1-8.9"/><path d="M761,274.69c.18.55.37.51.51.48l.46-.06c.31,0,.63-.1.94-.16a15,15,0,0,0,1.85-.54,19.67,19.67,0,0,0,3.5-1.66,20.69,20.69,0,0,0,3.21-2.23,21.82,21.82,0,0,0,2.91-2.79l.08,0a15.62,15.62,0,0,1-2.09,3.62,18.06,18.06,0,0,1-3.06,2.93,23.08,23.08,0,0,1-3.57,2.42c-.64.34-1.29.66-2,.95-.34.15-.68.29-1,.42l-.53.19a1.18,1.18,0,0,0-.57.33Z"/><path class="cls-6" d="M828.45,224.76a109,109,0,0,0,9,37"/><path d="M828.5,224.76c.49,3.16.9,6.31,1.46,9.43s1,6.27,1.75,9.37a116.74,116.74,0,0,0,5.78,18.18l-.09,0a104.38,104.38,0,0,1-6.46-18,73.81,73.81,0,0,1-2-9.41,63.93,63.93,0,0,1-.58-9.58Z"/><path class="cls-6" d="M851.45,430.76c-5.45-11.1-6.83-17.55-8-24-.78-4.32-1.2-8.31-2-26-.49-10.73-.8-19.66-1-26"/><path d="M851.39,430.79a24.27,24.27,0,0,1-2.34-4.27c-.68-1.47-1.33-2.95-1.94-4.46a66.45,66.45,0,0,1-3.05-9.26c-.41-1.58-.75-3.17-1.07-4.76s-.64-3.2-.87-4.81c-.45-3.24-.78-6.46-1-9.69-.48-6.46-.56-12.92-.68-19.39s-.1-12.93,0-19.39c.62,6.44,1.08,12.89,1.5,19.33s.85,12.89,1.13,19.33c.16,3.22.25,6.44.58,9.62a87.44,87.44,0,0,0,1.59,9.47,77.94,77.94,0,0,0,2.72,9.22c.55,1.51,1.14,3,1.77,4.49a38.38,38.38,0,0,1,1.77,4.51Z"/><path class="cls-6" d="M843.27,399.66a87.41,87.41,0,0,0,11.62-41.39c.72-32.7-5.22-50-5.22-50"/><path d="M843.18,399.61a104.72,104.72,0,0,0,7.94-21.87l.67-2.82c.21-.95.37-1.9.56-2.85s.37-1.9.51-2.85.34-1.91.44-2.87c.22-1.92.5-3.84.58-5.77s.2-3.88.24-5.83a212.36,212.36,0,0,0-.72-23.39c-.31-3.89-.78-7.76-1.38-11.62a92.91,92.91,0,0,0-2.45-11.45l.19-.06a93.12,93.12,0,0,1,2.85,11.4c.73,3.86,1.34,7.73,1.79,11.63a214.53,214.53,0,0,1,1.32,23.5c0,2,0,3.93-.05,5.91s-.24,3.94-.4,5.92a78,78,0,0,1-2.21,11.65,80.87,80.87,0,0,1-4,11.15,60.44,60.44,0,0,1-5.71,10.33Z"/><path class="cls-6" d="M773.45,542.76c-1-.24-11.55-9.56-17.3-14.69a17.13,17.13,0,0,1-5.62-10.43,32.45,32.45,0,0,1,3.92-19.88"/><path d="M773.42,542.86a20.73,20.73,0,0,1-2.88-2l-2.72-2.15-5.37-4.39-5.29-4.48c-.87-.75-1.79-1.47-2.64-2.34a18.63,18.63,0,0,1-2.26-2.82,18,18,0,0,1-2.68-6.73,28.56,28.56,0,0,1-.34-3.57,30.36,30.36,0,0,1,.15-3.57,27.74,27.74,0,0,1,5-13.1l.17.1A40.6,40.6,0,0,0,751.39,511a24.83,24.83,0,0,0-.07,3.34c0,1.11.1,2.23.21,3.33a15.64,15.64,0,0,0,2.09,6.18,17.47,17.47,0,0,0,2,2.66c.73.82,1.6,1.57,2.45,2.37l5.09,4.69,5.1,4.69,2.58,2.3a21.75,21.75,0,0,0,2.68,2.11Z"/><path class="cls-6" d="M671.45,288.76c3.52,8.66,11.76,11.89,21,11,9.93-1,20.2-12.26,24-19"/><path d="M671.59,288.7a22.23,22.23,0,0,0,4.51,5.22,18.34,18.34,0,0,0,5.76,3.16,29.33,29.33,0,0,0,6.5,1.35,25.85,25.85,0,0,0,3.41.09,15.81,15.81,0,0,0,3.29-.46c4.35-1.13,8.35-3.78,11.9-6.81a49.46,49.46,0,0,0,9.36-10.57l.26.15a40.42,40.42,0,0,1-3.87,6.06,53.42,53.42,0,0,1-4.76,5.44c-3.46,3.34-7.42,6.39-12.25,8a19.06,19.06,0,0,1-3.73.79,35.59,35.59,0,0,1-3.74.22,19.44,19.44,0,0,1-7.45-1.41,16.52,16.52,0,0,1-6.2-4.45,14.89,14.89,0,0,1-3.27-6.65Z"/><text class="cls-7" transform="translate(114.95 267.17)">You got <tspan x="0" y="99.6">caught an </tspan><tspan class="cls-8"><tspan x="0" y="199.2">Error!</tspan></tspan></text><line class="cls-9" x1="279.95" y1="246.76" x2="411.45" y2="245.76"/></g></g></svg>