<svg xmlns="http://www.w3.org/2000/svg" xmlns:xlink="http://www.w3.org/1999/xlink" viewBox="0 0 349.83 523.23"><defs><style>.cls-1{fill:url(#linear-gradient);}.cls-2{fill:#fff;}.cls-3{fill:url(#linear-gradient-2);}.cls-4{fill:url(#linear-gradient-3);}.cls-5{fill:#f1f1f2;}.cls-6{fill:#ffd573;}.cls-15,.cls-32,.cls-33,.cls-50,.cls-7{fill:none;}.cls-8{fill:#faaf40;}.cls-9{fill:#ffc833;}.cls-10{fill:#ffc31f;}.cls-11,.cls-29,.cls-38{fill:#fff100;}.cls-12,.cls-16,.cls-17,.cls-27,.cls-28,.cls-29,.cls-36,.cls-37,.cls-38,.cls-40,.cls-49{isolation:isolate;}.cls-12{font-size:16.18px;}.cls-12,.cls-27,.cls-28,.cls-29,.cls-37,.cls-38,.cls-40{font-family:OpenSans-Light, Open Sans;font-weight:300;}.cls-13{fill:#a2cd3a;}.cls-14{fill:#63caf1;}.cls-15{stroke:#231f20;stroke-width:1.14px;}.cls-15,.cls-32,.cls-50{stroke-linecap:round;}.cls-15,.cls-32,.cls-50,.cls-51{stroke-miterlimit:10;}.cls-16{font-size:6.75px;}.cls-16,.cls-17,.cls-21{fill:#231f20;}.cls-16,.cls-17,.cls-22,.cls-30,.cls-31,.cls-49{font-family:OpenSans-Regular, Open Sans;}.cls-17{font-size:6.76px;}.cls-18{fill:#3960ad;}.cls-19{fill:#307fc2;}.cls-20{fill:#fde69d;}.cls-22{font-size:13px;}.cls-23{fill:url(#linear-gradient-4);}.cls-24{fill:url(#linear-gradient-5);}.cls-25,.cls-51{fill:#404041;}.cls-26{fill:#ff0;}.cls-27{font-size:3.01px;}.cls-28,.cls-29{font-size:3.81px;}.cls-30{font-size:1.49px;}.cls-31{font-size:2.71px;}.cls-32,.cls-50{stroke:#2e43c7;}.cls-32{stroke-width:0.34px;}.cls-33,.cls-51{stroke:#fff;}.cls-33{stroke-miterlimit:10;stroke-width:0.29px;}.cls-34{fill:#58595b;}.cls-35{fill:url(#linear-gradient-6);}.cls-37,.cls-38{font-size:1.75px;}.cls-39{fill:url(#linear-gradient-7);}.cls-40{font-size:1.17px;}.cls-41{font-size:0.94px;font-family:MyriadPro-Regular, Myriad Pro;}.cls-42{letter-spacing:-0.01em;}.cls-43{letter-spacing:-0.01em;}.cls-44{letter-spacing:-0.01em;}.cls-45{letter-spacing:0.01em;}.cls-46{letter-spacing:0.02em;}.cls-47{letter-spacing:-0.01em;}.cls-48{letter-spacing:-0.01em;}.cls-49{font-size:1.36px;}.cls-50,.cls-51{stroke-width:0.16px;}</style><linearGradient id="linear-gradient" x1="-406.72" y1="289.93" x2="-12.37" y2="599.1" gradientTransform="translate(415.17 23.37)" gradientUnits="userSpaceOnUse"><stop offset="0.01" stop-color="#e98000"/><stop offset="0.94" stop-color="#ff0"/></linearGradient><linearGradient id="linear-gradient-2" x1="11.83" y1="-48.45" x2="366.54" y2="229.65" gradientUnits="userSpaceOnUse"><stop offset="0.14" stop-color="#00edff"/><stop offset="1" stop-color="#0001ee"/></linearGradient><linearGradient id="linear-gradient-3" x1="10.97" y1="132.39" x2="367.55" y2="411.95" gradientUnits="userSpaceOnUse"><stop offset="0.12" stop-color="#2aff97"/><stop offset="0.97" stop-color="#ff0"/></linearGradient><linearGradient id="linear-gradient-4" x1="106.67" y1="217.95" x2="208.44" y2="217.95" gradientUnits="userSpaceOnUse"><stop offset="0.39" stop-color="#2aeaff"/><stop offset="0.95" stop-color="#005eff" stop-opacity="0.8"/></linearGradient><linearGradient id="linear-gradient-5" x1="130.23" y1="251.52" x2="187.54" y2="251.52" gradientUnits="userSpaceOnUse"><stop offset="0.01" stop-color="#6affff"/><stop offset="1" stop-color="#1565ff"/></linearGradient><linearGradient id="linear-gradient-6" x1="56.68" y1="879.92" x2="77.51" y2="879.92" gradientTransform="matrix(1, 0.01, 0.01, -1, 158.54, 1118.83)" gradientUnits="userSpaceOnUse"><stop offset="0" stop-color="#2aeaff"/><stop offset="0.95" stop-color="#005eff" stop-opacity="0.8"/></linearGradient><linearGradient id="linear-gradient-7" x1="57.81" y1="861.59" x2="76.23" y2="861.59" gradientTransform="matrix(1, 0.01, 0.01, -1, 158.54, 1118.82)" xlink:href="#linear-gradient-5"/></defs><g id="Layer_2" data-name="Layer 2"><g id="Layer_1-2" data-name="Layer 1"><rect class="cls-1" y="363.91" width="349.19" height="159.32" rx="36.06" transform="translate(349.19 887.13) rotate(180)"/><rect class="cls-2" x="85.85" y="377.73" width="177.48" height="131.67" rx="20.71"/><rect class="cls-3" x="0.64" width="349.19" height="159.32" rx="36.22"/><rect class="cls-4" x="0.64" y="181.51" width="349.19" height="159.32" rx="33.98"/><path class="cls-5" d="M118,394.79l33.36-8.53a5.65,5.65,0,0,1,6.88,4.07h0l15.05,58.82a.8.8,0,0,1-.57,1h0l-42.78,10.95a.8.8,0,0,1-1-.58h0l-15.05-58.82A5.67,5.67,0,0,1,118,394.79Z"/><rect class="cls-2" x="86.49" y="13.83" width="177.48" height="131.67" rx="20.71"/><rect class="cls-2" x="87.16" y="195.33" width="177.48" height="131.67" rx="20.71"/><g id="Layer_2-2" data-name="Layer 2"><g id="Layer_1-2-2" data-name="Layer 1-2"><path class="cls-6" d="M200.25,29.17l-1.87,21c-1.63,10-9.42,18.11-19.34,19.43h0l-.28,0-.15,0c-.37,0-.75.08-1.13.11s-.7,0-1.06.06H174c-.37,0-.72,0-1.07-.06l-1.13-.11-.43,0a22.33,22.33,0,0,1-18.94-19.43l-2.72-20.41Z"/><path class="cls-7" d="M147.71,53c3.87,2.9,7.16,3.43,8.86,3.28q-1.71-9.32-3.4-18.63c-1.7-9.32-1.5-3.09-5.18-5.74-3.84-2.75-9.32-1.42-9.88,3.42C137.7,38.92,137.83,45.61,147.71,53Z"/><path class="cls-7" d="M147.71,53c3.87,2.9,7.16,3.43,8.86,3.28q-1.71-9.32-3.4-18.63c-1.7-9.32-1.5-3.09-5.18-5.74-3.84-2.75-9.32-1.42-9.88,3.42C137.7,38.92,137.83,45.61,147.71,53Z"/><path class="cls-8" d="M136.3,34c.71-5.91,7.52-7.57,12.26-4.23a20.77,20.77,0,0,1,6.4,7l4.14,22.7c-2.1.19-6.18-.44-11-3.95C135.91,46.49,135.77,38.33,136.3,34Zm11.41,19c3.87,2.9,7.16,3.43,8.86,3.28q-1.71-9.32-3.4-18.63c-1.7-9.32-1.5-3.09-5.18-5.74-3.84-2.75-9.32-1.42-9.88,3.42C137.7,38.92,137.83,45.61,147.71,53Z"/><path class="cls-7" d="M147.71,53c3.87,2.9,7.16,3.43,8.86,3.28q-1.71-9.32-3.4-18.63c-1.7-9.32-1.5-3.09-5.18-5.74-3.84-2.75-9.32-1.42-9.88,3.42C137.7,38.92,137.83,45.61,147.71,53Z"/><path class="cls-7" d="M202.75,53.34c-3.87,2.9-7.16,3.43-8.85,3.28L197.29,38c1.7-9.32,1.5-3.09,5.18-5.74,3.84-2.75,9.32-1.42,9.88,3.43C212.77,39.25,212.64,45.94,202.75,53.34Z"/><path class="cls-7" d="M202.75,53.34c-3.87,2.9-7.16,3.43-8.85,3.28L197.29,38c1.7-9.32,1.5-3.09,5.18-5.74,3.84-2.75,9.32-1.42,9.88,3.43C212.77,39.25,212.64,45.94,202.75,53.34Z"/><path class="cls-8" d="M214.17,34.3c-.72-5.91-7.52-7.57-12.26-4.23a20.77,20.77,0,0,0-6.4,7q-2.07,11.35-4.15,22.71c2.1.18,6.18-.45,11-4C214.55,46.82,214.7,38.66,214.17,34.3Zm-11.42,19c-3.87,2.9-7.16,3.43-8.85,3.28L197.29,38c1.7-9.32,1.5-3.09,5.18-5.74,3.84-2.75,9.32-1.42,9.88,3.43C212.77,39.25,212.64,45.94,202.75,53.34Z"/><path class="cls-7" d="M202.75,53.34c-3.87,2.9-7.16,3.43-8.85,3.28L197.29,38c1.7-9.32,1.5-3.09,5.18-5.74,3.84-2.75,9.32-1.42,9.88,3.43C212.77,39.25,212.64,45.94,202.75,53.34Z"/><path class="cls-9" d="M179,85.88h-7.63a45.85,45.85,0,0,0,0-18.65,30.38,30.38,0,0,0,3.82.25,26.61,26.61,0,0,0,3.67-.24,48.72,48.72,0,0,0-.77,8.61A48.19,48.19,0,0,0,179,85.88Z"/><polygon class="cls-8" points="200.49 26.48 200.25 29.17 149.75 29.72 149.31 26.48 200.49 26.48"/><path class="cls-6" d="M200.15,29.17l-1.87,21c-1.63,10-9.42,18.11-19.34,19.43h0l-.28,0-.15,0c-.37,0-.75.08-1.12.11s-.71,0-1.07.06h-2.38c-.37,0-.72,0-1.07-.06l-1.13-.11-.43,0a22.34,22.34,0,0,1-18.94-19.43l-2.71-21Z"/><path class="cls-6" d="M190.74,87.1v1.74H160V87.1a1.23,1.23,0,0,1,1.23-1.22h28.27A1.23,1.23,0,0,1,190.74,87.1Z"/><path class="cls-10" d="M193.19,90.85v4.34a.59.59,0,0,1-.58.59H158.14a.59.59,0,0,1-.58-.59V90.85a2,2,0,0,1,2-2h31.61a2,2,0,0,1,2,2Z"/><path class="cls-11" d="M162.93,35.56l-1.37-2,.09,2.8a4.91,4.91,0,0,1-2.31,4.33l-1.78,1.1,2.39-.2a4.91,4.91,0,0,1,4.51,2.19l1.33,2-.22-2.09a4.89,4.89,0,0,1,1.94-4.45l2.28-1.7-2.44.18A4.89,4.89,0,0,1,162.93,35.56Z"/><text class="cls-12" transform="translate(170.51 55.09)">1</text><path class="cls-11" d="M154.37,31.64l-.64-.95.05,1.3a2.28,2.28,0,0,1-1.07,2l-.83.52,1.12-.09a2.28,2.28,0,0,1,2.09,1l.61.94-.1-1a2.29,2.29,0,0,1,.91-2.07l1.05-.79-1.13.08A2.27,2.27,0,0,1,154.37,31.64Z"/></g></g><path class="cls-13" d="M134.76,443.05l.58,2.32a.84.84,0,0,1-.61,1l-2.7.69a.83.83,0,0,1-1-.6l-.59-2.31a.83.83,0,0,1,.6-1l2.7-.69a.83.83,0,0,1,1,.48A.67.67,0,0,1,134.76,443.05Z"/><rect class="cls-2" x="131.84" y="444.51" width="0.68" height="1.44" transform="translate(-297.99 270.16) rotate(-51.32)"/><path class="cls-2" d="M134.76,443.05l.15.61-2,2.56-.49-.39h0l.43-.54,1.89-2.38Z"/><path class="cls-14" d="M240.62,409.88l3.27,3.84a1.92,1.92,0,0,1-.21,2.7h0l-4.8,4.1h0l-5.76-6.76h0l4.81-4.09A1.91,1.91,0,0,1,240.62,409.88Z"/><path class="cls-5" d="M196.47,386.5,229.83,395a5.66,5.66,0,0,1,4.07,6.88l-15.05,58.82a.79.79,0,0,1-1,.58h0l-42.78-10.95a.8.8,0,0,1-.57-1h0l15-58.81a5.66,5.66,0,0,1,6.89-4.08Z"/><path class="cls-13" d="M125.71,407.69l.59,2.31a.84.84,0,0,1-.6,1l-2.7.69a.83.83,0,0,1-1-.6l-.59-2.31a.85.85,0,0,1,.6-1l2.7-.69a.83.83,0,0,1,1,.48A.61.61,0,0,1,125.71,407.69Z"/><rect class="cls-2" x="122.8" y="409.15" width="0.68" height="1.44" transform="translate(-273.79 249.84) rotate(-51.32)"/><path class="cls-2" d="M125.71,407.69l.16.62-2.05,2.55-.48-.39h0l.42-.54,1.89-2.37Z"/><line class="cls-15" x1="129.04" y1="408.07" x2="153.79" y2="401.74"/><line class="cls-15" x1="194.15" y1="402.56" x2="224.95" y2="410.44"/><line class="cls-15" x1="191.75" y1="411.94" x2="222.55" y2="419.82"/><line class="cls-15" x1="189.35" y1="421.33" x2="220.15" y2="429.21"/><line class="cls-15" x1="186.94" y1="430.72" x2="217.75" y2="438.6"/><line class="cls-15" x1="184.54" y1="440.11" x2="215.34" y2="447.99"/><path class="cls-13" d="M128,416.53l.59,2.32a.82.82,0,0,1-.6,1l-2.7.69a.83.83,0,0,1-1-.6l-.6-2.31a.84.84,0,0,1,.61-1h0l2.7-.69a.83.83,0,0,1,1,.48Z"/><rect class="cls-2" x="125.06" y="417.99" width="0.68" height="1.44" transform="translate(-279.84 254.92) rotate(-51.32)"/><path class="cls-2" d="M128,416.53l.16.61-2,2.56-.48-.39h0l.42-.54,1.89-2.37A.38.38,0,0,1,128,416.53Z"/><line class="cls-15" x1="131.31" y1="416.91" x2="156.05" y2="410.58"/><path class="cls-13" d="M130.23,425.37l.59,2.31a.83.83,0,0,1-.6,1l-2.7.69a.82.82,0,0,1-1-.6l-.6-2.31a.85.85,0,0,1,.61-1l2.7-.69a.84.84,0,0,1,1,.48A.56.56,0,0,1,130.23,425.37Z"/><rect class="cls-2" x="127.32" y="426.83" width="0.68" height="1.44" transform="translate(-285.89 260) rotate(-51.32)"/><path class="cls-2" d="M130.23,425.37l.16.61-2,2.56-.48-.39h0l.42-.54,1.89-2.37A.38.38,0,0,1,130.23,425.37Z"/><line class="cls-15" x1="133.57" y1="425.75" x2="158.31" y2="419.42"/><path class="cls-13" d="M132.49,434.21l.59,2.31a.83.83,0,0,1-.6,1l-2.7.69a.82.82,0,0,1-1-.6l-.6-2.31a.85.85,0,0,1,.61-1l2.7-.69a.84.84,0,0,1,1,.48A.56.56,0,0,1,132.49,434.21Z"/><rect class="cls-2" x="129.58" y="435.67" width="0.68" height="1.44" transform="translate(-291.94 265.08) rotate(-51.32)"/><path class="cls-2" d="M132.49,434.21l.16.62-2,2.55-.49-.39h0l.43-.54,1.89-2.37A.69.69,0,0,1,132.49,434.21Z"/><line class="cls-15" x1="135.83" y1="434.59" x2="160.58" y2="428.26"/><line class="cls-15" x1="138.09" y1="443.43" x2="162.84" y2="437.1"/><text class="cls-16" transform="translate(129.32 401.44) rotate(-14.35)">TEST</text><text class="cls-17" transform="translate(202.96 397.54) rotate(14.45)">TEST</text><line class="cls-15" x1="192.95" y1="407.25" x2="217.7" y2="413.58"/><line class="cls-15" x1="190.55" y1="416.64" x2="215.29" y2="422.97"/><line class="cls-15" x1="188.14" y1="426.03" x2="212.89" y2="432.36"/><line class="cls-15" x1="185.74" y1="435.41" x2="210.49" y2="441.75"/><polygon class="cls-18" points="210.89 441.52 209.44 439.83 236.01 417.16 237.45 418.85 210.89 441.52"/><polygon class="cls-19" points="209.44 439.83 207.98 438.11 234.59 415.49 236.01 417.16 209.44 439.83"/><polygon class="cls-18" points="234.59 415.49 207.98 438.11 206.52 436.39 233.11 413.75 234.59 415.49"/><polygon class="cls-19" points="238.87 420.51 212.28 443.15 210.89 441.52 237.45 418.85 238.87 420.51"/><polygon class="cls-20" points="206.52 436.39 212.28 443.15 201.55 446.39 206.52 436.39"/><polygon class="cls-21" points="203 443.51 204.63 445.43 201.62 446.33 203 443.51"/><text class="cls-22" transform="translate(107.37 116.88)">Competitive Approach <tspan x="9.51" y="15.6">and Ranking Sytem</tspan></text><text class="cls-22" transform="translate(117.18 301.08)">Easy to Use Student <tspan x="7.3" y="15.6">Friendly Interface</tspan></text><text class="cls-22" transform="translate(104.13 485.04)">Supports Both Objective <tspan x="13.87" y="15.6">and subjective tests</tspan></text><path class="cls-23" d="M208.44,207.26v9.16c-1.64,1.38-3.4,2.79-5.28,4.16-8.84,6.46-20.32,12.31-33.88,12.84-22.8.89-28.27-14.11-48.75-12.87A38.91,38.91,0,0,0,112,222l-.71.22a40.21,40.21,0,0,0-4.57,1.72v-16.7a4.81,4.81,0,0,1,4.58-4.81H203.6A4.83,4.83,0,0,1,208.44,207.26Z"/><path class="cls-24" d="M187.54,252.18l-.18,3.42H130.23l.19-3.46c.14-2.61,6.48-4.71,14.18-4.7l29.26,0C181.55,247.47,187.68,249.58,187.54,252.18Z"/><path class="cls-7" d="M203.16,208.87v40.29a3.9,3.9,0,0,1-3.89,3.9H115.85a3.9,3.9,0,0,1-3.9-3.9V208.87a3.9,3.9,0,0,1,3.9-3.89h83.42A3.89,3.89,0,0,1,203.16,208.87Z"/><path class="cls-25" d="M203.21,202.44v17.85l-.05.06V208.87a3.89,3.89,0,0,0-3.89-3.89H115.85a3.9,3.9,0,0,0-3.9,3.89v20.72c-.24-.36-.48-.72-.71-1.08V202.45h92Z"/><path class="cls-7" d="M203.16,208.87v40.29a3.9,3.9,0,0,1-3.89,3.9H115.85a3.9,3.9,0,0,1-3.9-3.9V208.87a3.9,3.9,0,0,1,3.9-3.89h83.42A3.89,3.89,0,0,1,203.16,208.87Z"/><path class="cls-25" d="M208.44,207.26v43.51a4.84,4.84,0,0,1-4.84,4.83H111.5a4.83,4.83,0,0,1-4.83-4.83V207.26a4.81,4.81,0,0,1,4.58-4.81v26.06c.23.36.47.72.71,1.08v19.57a3.9,3.9,0,0,0,3.9,3.9h83.42a3.9,3.9,0,0,0,3.89-3.9V220.35l.05-.06V202.44h.39A4.83,4.83,0,0,1,208.44,207.26Z"/><polygon class="cls-25" points="162.59 268.33 152.44 268.33 151.34 255.6 163.77 255.6 162.59 268.33"/><path class="cls-25" d="M139.23,267.12h36.65a1.58,1.58,0,0,1,1.58,1.58v4.13a0,0,0,0,1,0,0h-39.8a0,0,0,0,1,0,0v-4.13A1.58,1.58,0,0,1,139.23,267.12Z"/><rect class="cls-26" x="157.34" y="214.8" width="5.37" height="21.47" rx="2.68" transform="translate(-67.94 382.09) rotate(-89.12)"/><text class="cls-27" transform="translate(153.34 226.47) rotate(0.88)">Let’s Start</text><text class="cls-28" transform="translate(129.58 213.5) rotate(1.06)">Take Education To </text><text class="cls-28" transform="translate(162.11 214.04) rotate(1.06)">The </text><text class="cls-29" transform="translate(170.38 214.04) rotate(1.06)">Next Level</text><text class="cls-30" transform="translate(141.54 217.23)">Get your online exams and tests done faster than ever.</text><text class="cls-31" transform="translate(147.67 240.01)">Next Level Features</text><line class="cls-32" x1="156.87" y1="241.83" x2="162.58" y2="241.83"/><rect class="cls-33" x="233.56" y="268.19" width="1.7" height="1.79" rx="0.19" transform="translate(-37.06 500.73) rotate(-89.41)"/><path class="cls-25" d="M226.11,227.81l17.44.18a3.25,3.25,0,0,1,3.21,3.27v1.08h0l-23.93-.24h0V231A3.25,3.25,0,0,1,226.11,227.81Z"/><rect class="cls-34" x="217.41" y="237.46" width="34.4" height="23.93" transform="matrix(0.01, -1, 1, 0.01, -17.19, 481.47)"/><rect class="cls-2" x="218.2" y="239.07" width="32.64" height="20.83" transform="matrix(0.01, -1, 1, 0.01, -17.35, 481.45)"/><path class="cls-2" d="M231.46,230l6.69.07a.33.33,0,0,1,.33.34h0a.34.34,0,0,1-.34.34l-6.69-.07a.34.34,0,0,1-.33-.34h0A.34.34,0,0,1,231.46,230Z"/><path class="cls-35" d="M245.1,233.25l-.09,8.38a7.39,7.39,0,0,1-4.8,2.41c-2.6.09-3.21-1.83-5.55-1.69-3.25.18-4.31,4-7,3.73-1.53-.15-2.7-1.53-3.49-2.8l.1-10.25Z"/><g class="cls-36"><text class="cls-37" transform="translate(227.58 236.19) rotate(0.58)">Take Education To </text><text class="cls-37" transform="translate(228.97 238.31) rotate(0.58)">The </text><text class="cls-38" transform="translate(232.34 238.34) rotate(0.58)">Next Level</text></g><path class="cls-7" d="M241.24,262a1.09,1.09,0,0,1-.46.22,1.83,1.83,0,0,0,.15-.45l.11-1.13.2-.17a.44.44,0,0,1,.72.26C242,261,242,261.46,241.24,262Z"/><path class="cls-39" d="M229.79,250.39l9.41,0a4.34,4.34,0,0,1,4.41,4.38l-.12,6.4a4.53,4.53,0,0,1-4.57,4.36l-9.41,0a4.35,4.35,0,0,1-4.4-4.38l.12-6.4A4.51,4.51,0,0,1,229.79,250.39Z"/><rect class="cls-2" x="229.34" y="252.62" width="9.23" height="10.93" rx="1.42" transform="translate(-26.5 489.39) rotate(-89.41)"/><path class="cls-6" d="M235.73,254.53v.17l0,.22-.11,1.13a1.39,1.39,0,0,1-.14.45,1.59,1.59,0,0,1-.13.22,1.61,1.61,0,0,1-1.15.72h-.54a1.6,1.6,0,0,1-1.14-.77,1.47,1.47,0,0,1-.1-.22,1.3,1.3,0,0,1-.11-.43l-.15-1.18,0-.23v-.07l3.64,0Z"/><path class="cls-7" d="M231.9,256.22a1,1,0,0,0,.64.24l-.23-1.35a1.35,1.35,0,0,0-.37-.42.43.43,0,0,0-.72.24C231.19,255.19,231.19,255.67,231.9,256.22Z"/><path class="cls-7" d="M231.9,256.22a1,1,0,0,0,.64.24l-.23-1.35a1.35,1.35,0,0,0-.37-.42.43.43,0,0,0-.72.24C231.19,255.19,231.19,255.67,231.9,256.22Z"/><path class="cls-8" d="M231.09,254.83a.54.54,0,0,1,.89-.3,1.5,1.5,0,0,1,.46.51l.28,1.65a1.3,1.3,0,0,1-.79-.29C231.05,255.74,231.05,255.14,231.09,254.83Zm.81,1.38a1,1,0,0,0,.64.25l-.23-1.35a1.25,1.25,0,0,0-.37-.42.43.43,0,0,0-.72.24c0,.26,0,.74.68,1.29Z"/><path class="cls-7" d="M231.9,256.22a1,1,0,0,0,.64.24l-.23-1.35a1.35,1.35,0,0,0-.37-.42.43.43,0,0,0-.72.24C231.19,255.19,231.19,255.67,231.9,256.22Z"/><path class="cls-7" d="M235.69,254.92h0a1.3,1.3,0,0,0-.18.23c-.09.45-.17.9-.26,1.35a.55.55,0,0,0,.18,0h0"/><path class="cls-7" d="M235.69,254.92h0a1.3,1.3,0,0,0-.18.23c-.09.45-.17.9-.26,1.35a.55.55,0,0,0,.18,0h0"/><path class="cls-8" d="M236.74,254.91a.54.54,0,0,0-.88-.32l-.14.11h0a1.48,1.48,0,0,0-.32.39l-.32,1.65a.87.87,0,0,0,.23,0h0a1.27,1.27,0,0,0,.55-.26C236.76,255.82,236.77,255.23,236.74,254.91Zm-.84,1.37a1.15,1.15,0,0,1-.46.22,1.47,1.47,0,0,0,.14-.45l.12-1.13a1.54,1.54,0,0,1,.19-.17.44.44,0,0,1,.72.26,1.36,1.36,0,0,1-.71,1.27Z"/><path class="cls-7" d="M235.69,254.92h0a1.3,1.3,0,0,0-.18.23c-.09.45-.17.9-.26,1.35a.55.55,0,0,0,.18,0h0"/><path class="cls-7" d="M235.9,256.28a1.22,1.22,0,0,1-.46.22,1.81,1.81,0,0,0,.14-.45l.11-1.13.2-.17a.44.44,0,0,1,.72.26A1.36,1.36,0,0,1,235.9,256.28Z"/><path class="cls-7" d="M235.69,254.92h0a1.3,1.3,0,0,0-.18.23c-.09.45-.17.9-.26,1.35a.55.55,0,0,0,.18,0h0"/><path class="cls-9" d="M234.15,258.63h-.55a3,3,0,0,0,.07-.74,3.08,3.08,0,0,0-.06-.61l.28,0a1.23,1.23,0,0,0,.27,0,3.55,3.55,0,0,0,0,1.36Z"/><polygon class="cls-8" points="235.75 254.33 235.73 254.53 232.07 254.53 232.04 254.29 235.75 254.33"/><path class="cls-6" d="M235.72,254.53l-.15,1.52a1.69,1.69,0,0,1-1.42,1.4h-.55a1.63,1.63,0,0,1-1.36-1.43l-.18-1.52Z"/><path class="cls-6" d="M235,258.72v.13l-2.24,0v-.13a.09.09,0,0,1,.09-.09l2.06,0a.08.08,0,0,1,.09.08Z"/><path class="cls-10" d="M232.59,259.29V259a.15.15,0,0,1,.15-.14l2.29,0a.15.15,0,0,1,.15.15v.31"/><path class="cls-11" d="M233,255l-.1-.15V255a.39.39,0,0,1-.17.31l-.14.08.18,0a.37.37,0,0,1,.32.17l.1.14,0-.15a.37.37,0,0,1,.15-.32l.17-.12h-.18A.34.34,0,0,1,233,255Z"/><text class="cls-40" transform="translate(233.57 256.37) rotate(0.58)">1</text><path class="cls-11" d="M232.4,254.67l0-.07v.1a.16.16,0,0,1-.08.14l-.06,0h.08a.18.18,0,0,1,.15.08l0,.07V255a.15.15,0,0,1,.07-.15l.07-.06h-.08A.18.18,0,0,1,232.4,254.67Z"/><text class="cls-41" transform="translate(228.69 260.96) rotate(0.58)"><tspan class="cls-42">C</tspan><tspan x="0.54" y="0">ompetiti</tspan><tspan class="cls-43" x="3.92" y="0">v</tspan><tspan x="4.37" y="0">e App</tspan><tspan class="cls-44" x="6.69" y="0">r</tspan><tspan x="6.99" y="0">oach and </tspan><tspan class="cls-45" x="2.18" y="1.13">R</tspan><tspan x="2.7" y="1.13">an</tspan><tspan class="cls-46" x="3.67" y="1.13">k</tspan><tspan x="4.13" y="1.13">ing </tspan><tspan class="cls-47" x="5.61" y="1.13">Sy</tspan><tspan x="6.51" y="1.13">s</tspan><tspan class="cls-48" x="6.88" y="1.13">t</tspan><tspan x="7.19" y="1.13">em</tspan></text><path class="cls-25" d="M222.47,266.5l23.92.24h0v1.69a3.25,3.25,0,0,1-3.28,3.21h0l-17.44-.17a3.25,3.25,0,0,1-3.21-3.28l0-1.69Z"/><text class="cls-49" transform="translate(229.15 248.19) rotate(0.12)">Next level features</text><line class="cls-50" x1="233.2" y1="249.02" x2="235.46" y2="249"/><circle class="cls-51" cx="234.41" cy="269.09" r="1.41"/></g></g></svg>