<svg xmlns="http://www.w3.org/2000/svg" viewBox="0 0 219 219"><defs><style>.cls-1{fill:#5ce2ff;}.cls-2{fill:#fff;}</style></defs><g id="Layer_2" data-name="Layer 2"><g id="Layer_1-2" data-name="Layer 1"><path class="cls-1" d="M109.5,0A109.5,109.5,0,1,0,219,109.5,109.49,109.49,0,0,0,109.5,0Zm0,209.24a99.75,99.75,0,0,1-10.27-199,102.49,102.49,0,0,1,10.27-.52,99.75,99.75,0,0,1,0,199.49Z"/><path class="cls-2" d="M209.24,109.5a99.74,99.74,0,1,1-110-99.23,102.49,102.49,0,0,1,10.27-.52A99.74,99.74,0,0,1,209.24,109.5Z"/><path class="cls-1" d="M71.14,151.44c.9-1.83,6-1.82,10.22-2.4,0,0,3-.39,6-.47,11.86-.28,21,3.43,27.8,5.32,11.44,3.19,28.94,4.72,55-3.41a1.1,1.1,0,0,1,1.24,1.66,46.17,46.17,0,0,1-19.45,15.79c-9.47,4.2-18.19,4.45-25.61,4.6-21.77.44-25.63-6.72-46.4-5.36-3.06.2-7.92.67-13.56,1.45-1.61.23-3.29.47-5,.74a1.09,1.09,0,0,1-1.08-1.68C62.61,164.1,68.23,157.37,71.14,151.44Z"/><path class="cls-1" d="M107.86,40.11a46.22,46.22,0,0,0-7.93,8.43C92.54,60.28,91.94,65.2,91.1,72c-1.7,13.77,2.44,27.91,2.57,41.78.1,12-1.16,24.48-6.51,35.09a52.05,52.05,0,0,0-6,.47A54.47,54.47,0,0,0,71,151.76a38.44,38.44,0,0,0,4.44-19.69c-.64-12.06-6.71-23.14-9.14-35-.62-3-5.4-30.09,11.06-47.14,10-10.38,23.62-12.59,31.28-13a1.1,1.1,0,0,1,.74,2C108.89,39.26,108.38,39.67,107.86,40.11Z"/></g></g></svg>