<svg xmlns="http://www.w3.org/2000/svg" xmlns:xlink="http://www.w3.org/1999/xlink" viewBox="0 0 721.44 484.82"><defs><style>.cls-1,.cls-22{fill:#404041;}.cls-2{fill:#58595b;}.cls-3{fill:#fff;}.cls-4{fill:#d0d2d3;}.cls-5{fill:url(#linear-gradient);}.cls-16,.cls-21,.cls-6{fill:none;}.cls-21,.cls-22,.cls-6{stroke:#fff;stroke-miterlimit:10;}.cls-7{fill:url(#linear-gradient-2);}.cls-8{font-size:18px;}.cls-11,.cls-20,.cls-8{font-family:OpenSans-Light, Open Sans;font-weight:300;}.cls-9{fill:#fff100;}.cls-10{fill:#ff0;}.cls-11{font-size:12px;}.cls-12{font-size:14px;font-family:OpenSans-Regular, Open Sans;}.cls-13{fill:url(#linear-gradient-3);}.cls-14{font-size:10px;font-family:OpenSans-SemiBold, Open Sans;font-weight:600;}.cls-15{fill:#ffd573;}.cls-17{fill:#faaf40;}.cls-18{fill:#ffc833;}.cls-19{fill:#ffc31f;}.cls-20{font-size:12.06px;}.cls-21{stroke-width:0.88px;}.cls-22{stroke-width:0.5px;}.cls-23{fill:url(#linear-gradient-4);}.cls-24{fill:url(#linear-gradient-5);}.cls-25{fill:url(#linear-gradient-6);}</style><linearGradient id="linear-gradient" x1="333.45" y1="361.65" x2="428.96" y2="361.65" gradientTransform="matrix(1, 0, 0, -1, -213.21, 755.76)" gradientUnits="userSpaceOnUse"><stop offset="0.01" stop-color="#15ffc7"/><stop offset="1" stop-color="#bcff15"/></linearGradient><linearGradient id="linear-gradient-2" x1="73.48" y1="113.38" x2="287.49" y2="113.38" gradientTransform="translate(-62.17 85.2) rotate(-16.54)" gradientUnits="userSpaceOnUse"><stop offset="0" stop-color="#2aeaff"/><stop offset="0.95" stop-color="#005eff" stop-opacity="0.8"/></linearGradient><linearGradient id="linear-gradient-3" x1="180.49" y1="286.74" x2="275.99" y2="286.74" gradientTransform="translate(10 8.38)" gradientUnits="userSpaceOnUse"><stop offset="0.01" stop-color="#6affff"/><stop offset="1" stop-color="#1565ff"/></linearGradient><linearGradient id="linear-gradient-4" x1="436.55" y1="144.56" x2="650.56" y2="144.56" gradientTransform="translate(96.51 -149.83) rotate(16.54)" xlink:href="#linear-gradient-2"/><linearGradient id="linear-gradient-5" x1="-30.53" y1="392.67" x2="64.98" y2="392.67" gradientTransform="matrix(1, 0, 0, -1, 443.69, 760.64)" xlink:href="#linear-gradient"/><linearGradient id="linear-gradient-6" x1="544.46" y1="317.77" x2="639.97" y2="317.77" gradientTransform="translate(-18.42 5.58)" xlink:href="#linear-gradient-3"/></defs><g id="Layer_2" data-name="Layer 2"><g id="Layer_1-2" data-name="Layer 1"><path class="cls-1" d="M26.47,26H205.64A33.33,33.33,0,0,1,239,59.3V70.41a0,0,0,0,1,0,0H-6.86a0,0,0,0,1,0,0V59.3A33.33,33.33,0,0,1,26.47,26Z" transform="translate(-8.91 35.02) rotate(-16.54)"/><rect class="cls-2" x="49.77" y="62.18" width="245.83" height="353.47" transform="translate(-60.86 59.03) rotate(-16.54)"/><rect class="cls-3" x="65" y="72.13" width="214.01" height="335.42" transform="translate(-61.15 58.87) rotate(-16.54)"/><path class="cls-1" d="M107.28,407.3H353.12a0,0,0,0,1,0,0v17.36A33.33,33.33,0,0,1,319.78,458H140.62a33.33,33.33,0,0,1-33.33-33.33V407.3A0,0,0,0,1,107.28,407.3Z" transform="translate(-113.61 83.41) rotate(-16.54)"/><rect class="cls-3" x="79.2" y="48.04" width="75.69" height="6.94" rx="3.47" transform="translate(-9.82 35.44) rotate(-16.54)"/><rect class="cls-4" x="211.8" y="345.97" width="95.51" height="41.92" transform="translate(612.8 644.81) rotate(163.46)"/><rect class="cls-5" x="120.24" y="373.15" width="95.51" height="41.92" transform="translate(441.21 724.11) rotate(163.46)"/><path class="cls-6" d="M152.05,455.84l16.23,3.89-2.2-7.42-2.55-8.57Z"/><circle class="cls-6" cx="228.23" cy="433.23" r="9.14"/><rect class="cls-6" x="287.84" y="404.06" width="18.36" height="17.48" rx="1.97" transform="translate(-105.2 101.61) rotate(-16.54)"/><path class="cls-7" d="M226.66,48l24.52,82.6c-7.36,13.75-19.78,31.27-39.85,38.19-25.32,8.73-37.09-8.26-59.68.14-31.31,11.64-30.27,52.29-57.49,57.82-15.44,3.14-31.07-6.86-42.69-16.89l-30-100.95Z"/><text class="cls-8" transform="translate(61.05 125.24) rotate(-16.54)">Take Education To <tspan x="14.52" y="21.6">The </tspan><tspan class="cls-9" x="49.12" y="21.6">Next Level</tspan></text><text/><rect class="cls-10" x="108.17" y="138.8" width="85.73" height="21.45" rx="10.72" transform="translate(-36.31 49.17) rotate(-16.54)"/><text class="cls-11" transform="translate(126.89 161.62) rotate(-16.54)">Let’s Start</text><text/><text class="cls-12" transform="translate(116.19 266.04) rotate(-16.54)">Next level features</text><rect class="cls-4" x="98.93" y="281.96" width="95.51" height="80.69" transform="translate(-85.66 55.08) rotate(-16.54)"/><rect class="cls-13" x="190.48" y="254.78" width="95.51" height="80.69" transform="translate(-74.14 80.01) rotate(-16.54)"/><text class="cls-14" transform="translate(108.22 319.87) rotate(-16.54)">Competitive <tspan x="0" y="12">Approach and </tspan><tspan x="0" y="24">Ranking Sytem</tspan></text><text/><path class="cls-15" d="M249.68,268.13l.35,1.74.46,2.27,2.3,11.37a17.85,17.85,0,0,1,0,4.9,19.31,19.31,0,0,1-.56,2.53,16.75,16.75,0,0,1-9.09,10.56h0l-.2.09-.1,0c-.25.11-.51.22-.78.32l-.75.27-.21.07-.09,0-.1,0-.44.14-.08,0-.17.05-.2.06-.1,0h-.1l-.21.06-.78.18-.83.16-.32.05A16.41,16.41,0,0,1,224.1,299a17.54,17.54,0,0,1-1.73-1.82,17.17,17.17,0,0,1-2.4-3.92l-5-11.15L214,280l-.31-.7,35.91-11.1Z"/><path class="cls-16" d="M217.19,296.33c3.37,1.24,5.84.92,7,.46l-6.38-12.6a12.85,12.85,0,0,0-4.92-3c-3.33-1.15-7,1-6.34,4.55C207,288.38,208.55,293.13,217.19,296.33Z"/><path class="cls-16" d="M217.19,296.33c3.37,1.24,5.84.92,7,.46l-6.38-12.6a12.85,12.85,0,0,0-4.92-3c-3.33-1.15-7,1-6.34,4.55C207,288.38,208.55,293.13,217.19,296.33Z"/><path class="cls-17" d="M205,285.14c-.75-4.38,3.76-7,7.86-5.63a15.62,15.62,0,0,1,6.06,3.62q3.89,7.68,7.78,15.36c-1.46.58-4.51,1-8.68-.5C207.37,294.17,205.53,288.36,205,285.14Zm12.2,11.19c3.37,1.24,5.84.92,7,.46l-6.38-12.6a12.85,12.85,0,0,0-4.92-3c-3.33-1.15-7,1-6.34,4.55C207,288.38,208.55,293.13,217.19,296.33Z"/><path class="cls-16" d="M217.19,296.33c3.37,1.24,5.84.92,7,.46l-6.38-12.6a12.85,12.85,0,0,0-4.92-3c-3.33-1.15-7,1-6.34,4.55C207,288.38,208.55,293.13,217.19,296.33Z"/><path class="cls-16" d="M250.49,272.14a.54.54,0,0,0-.05.11,11.28,11.28,0,0,0-1,2.81L251,289.11a6.74,6.74,0,0,0,1.7-.66l.07,0"/><path class="cls-16" d="M250.49,272.14a.54.54,0,0,0-.05.11,11.28,11.28,0,0,0-1,2.81L251,289.11a6.74,6.74,0,0,0,1.7-.66l.07,0"/><path class="cls-17" d="M260.72,268.85c-1.77-4.07-7-3.81-9.66-.42a17,17,0,0,0-1,1.44.41.41,0,0,0-.05.09,14.68,14.68,0,0,0-2,4.81l1.86,17.11a8.39,8.39,0,0,0,2.28-.89l.08-.05a15.41,15.41,0,0,0,4.63-4.21C263.65,277.71,262,271.85,260.72,268.85Zm-4.12,16a12.33,12.33,0,0,1-3.86,3.53,17.85,17.85,0,0,0,0-4.9l-2.3-11.37a14,14,0,0,1,1.44-2.27c2.15-2.78,6.36-3,7.79.35C260.77,272.68,262.1,277.49,256.6,284.88Z"/><path class="cls-16" d="M250.49,272.14a.54.54,0,0,0-.05.11,11.28,11.28,0,0,0-1,2.81L251,289.11a6.74,6.74,0,0,0,1.7-.66l.07,0"/><path class="cls-16" d="M256.6,284.88a12.33,12.33,0,0,1-3.86,3.53,17.85,17.85,0,0,0,0-4.9l-2.3-11.37a14,14,0,0,1,1.44-2.27c2.15-2.78,6.36-3,7.79.35C260.77,272.68,262.1,277.49,256.6,284.88Z"/><path class="cls-16" d="M250.49,272.14a.54.54,0,0,0-.05.11,11.28,11.28,0,0,0-1,2.81L251,289.11a6.74,6.74,0,0,0,1.7-.66l.07,0"/><path class="cls-18" d="M246.56,313.17l-5.46,1.62a34.54,34.54,0,0,0-1.49-7.49,33.94,33.94,0,0,0-2.47-5.84,21.45,21.45,0,0,0,2.78-.63,20.28,20.28,0,0,0,2.58-.95,36.45,36.45,0,0,0,1.28,6.32A35.36,35.36,0,0,0,246.56,313.17Z"/><polygon class="cls-17" points="249.28 266.16 249.68 268.13 213.7 279.25 212.7 277.02 249.28 266.16"/><path class="cls-15" d="M249.61,268.15l3.11,15.39a17.26,17.26,0,0,1-9.7,18h0l-.2.09-.1,0c-.25.11-.51.22-.78.32s-.49.19-.75.27l-.21.07-.09,0-.1,0-.45.13-.44.13-.1,0h-.1l-.21.06-.78.18-.83.16-.32.05a16.62,16.62,0,0,1-17.66-9.86l-6.39-14.41Z"/><path class="cls-15" d="M255.18,311.57l.37,1.23-22,6.53-.37-1.24a.92.92,0,0,1,.62-1.14L254,311A.91.91,0,0,1,255.18,311.57Z"/><path class="cls-19" d="M233.18,324.39l-.93-3.1a1.51,1.51,0,0,1,1-1.87l22.59-6.71a1.5,1.5,0,0,1,1.87,1l.92,3.1"/><path class="cls-9" d="M224.36,280.62,223,279.47l.66,2a3.69,3.69,0,0,1-.73,3.59l-1,1.17,1.67-.66a3.69,3.69,0,0,1,3.69.61l1.37,1.16-.6-1.45a3.62,3.62,0,0,1,.45-3.59l1.26-1.69-1.7.64A3.63,3.63,0,0,1,224.36,280.62Z"/><text class="cls-20" transform="translate(233.93 292.97) rotate(-16.54)">1</text><path class="cls-9" d="M217.41,279.63l-.66-.54.31.92a1.72,1.72,0,0,1-.34,1.67l-.48.54.78-.3a1.69,1.69,0,0,1,1.71.28l.64.54-.28-.67a1.72,1.72,0,0,1,.2-1.67l.59-.79-.79.3A1.68,1.68,0,0,1,217.41,279.63Z"/><text class="cls-14" transform="translate(226.09 380.49) rotate(-16.54)">Easy to Use <tspan x="0" y="12">Student Friend</tspan><tspan x="71.41" y="12">-</tspan></text><rect class="cls-21" x="482.06" y="424.9" width="18.36" height="17.48" rx="1.97" transform="translate(143.74 -121.88) rotate(16.54)"/><path class="cls-1" d="M515.8,27H695A33.33,33.33,0,0,1,728.3,60.29V71.4a0,0,0,0,1,0,0H482.46a0,0,0,0,1,0,0V60.29A33.33,33.33,0,0,1,515.8,27Z" transform="translate(39.04 -170.27) rotate(16.54)"/><rect class="cls-2" x="425.84" y="63.17" width="245.83" height="353.47" transform="translate(90.98 -146.26) rotate(16.54)"/><rect class="cls-3" x="440.68" y="72.61" width="214.01" height="335.42" transform="translate(91.05 -145.94) rotate(16.54)"/><path class="cls-1" d="M368.32,408.29H614.15a0,0,0,0,1,0,0v17.36A33.33,33.33,0,0,1,580.82,459H401.65a33.33,33.33,0,0,1-33.33-33.33V408.29A0,0,0,0,1,368.32,408.29Z" transform="translate(143.74 -121.88) rotate(16.54)"/><rect class="cls-3" x="566.54" y="49.04" width="75.69" height="6.94" rx="3.47" transform="translate(39.94 -169.85) rotate(16.54)"/><circle class="cls-22" cx="491.24" cy="433.63" r="14.46"/><path class="cls-23" d="M698.06,109.79l-24.53,82.6c-13.67,7.51-33.63,15.41-54.23,10.26-26-6.5-26.58-27.16-50.09-32.45-32.59-7.33-53.9,27.29-79.73,17.08-14.65-5.8-22.3-22.7-26.56-37.45l30-101Z"/><text class="cls-8" transform="translate(516.46 89.57) rotate(16.54)">Take Education To <tspan x="14.52" y="21.6">The </tspan><tspan class="cls-9" x="49.12" y="21.6">Next Level</tspan></text><text/><rect class="cls-10" x="526.61" y="141.84" width="85.73" height="21.45" rx="10.72" transform="translate(66.98 -155.77) rotate(16.54)"/><text class="cls-11" transform="translate(542.64 149.53) rotate(16.54)">Let’s Start</text><rect class="cls-4" x="504.72" y="374.19" width="95.51" height="41.92" transform="translate(969.63 931.21) rotate(-163.46)"/><rect class="cls-24" x="413.17" y="347.01" width="95.51" height="41.92" transform="translate(798.05 851.91) rotate(-163.46)"/><text class="cls-12" transform="translate(487.39 232.38) rotate(16.54)">Next level features</text><rect class="cls-4" x="434.49" y="255.82" width="95.51" height="80.69" transform="translate(104.24 -125) rotate(16.54)"/><rect class="cls-25" x="526.04" y="283" width="95.51" height="80.69" transform="translate(115.76 -149.94) rotate(16.54)"/><text class="cls-14" transform="translate(451.34 273.14) rotate(16.54)">Competitive <tspan x="0" y="12">Approach and </tspan><tspan x="0" y="24">Ranking Sytem</tspan></text><text/><path class="cls-15" d="M598.11,307l-.65,1.65-.85,2.15-4.28,10.79a18,18,0,0,1-2.72,4.08,17.57,17.57,0,0,1-1.85,1.81,16.73,16.73,0,0,1-13.38,3.89h0l-.21,0-.11,0-.82-.16-.78-.18-.22-.06-.09,0-.1,0-.45-.13-.07,0-.17-.05-.2-.07-.1,0h0l0,0-.21-.07-.75-.27-.78-.32-.3-.13a16.41,16.41,0,0,1-9.08-10.84,17.07,17.07,0,0,1-.46-2.47,16.85,16.85,0,0,1,.13-4.59l1.9-12.07.37-2.33.12-.77L598,307Z"/><path class="cls-16" d="M555.5,312.87c2.15,2.89,4.39,4,5.63,4.22l1.53-14a12.91,12.91,0,0,0-2.49-5.2c-2.15-2.78-6.36-3-7.79.35C551.33,300.67,550,305.48,555.5,312.87Z"/><path class="cls-16" d="M555.5,312.87c2.15,2.89,4.39,4,5.63,4.22l1.53-14a12.91,12.91,0,0,0-2.49-5.2c-2.15-2.78-6.36-3-7.79.35C551.33,300.67,550,305.48,555.5,312.87Z"/><path class="cls-17" d="M551.38,296.83c1.76-4.07,7-3.81,9.66-.41a15.49,15.49,0,0,1,3.1,6.33l-1.86,17.11c-1.54-.31-4.32-1.63-7-5.15C548.45,305.7,550.08,299.84,551.38,296.83Zm4.12,16c2.15,2.89,4.39,4,5.63,4.22l1.53-14a12.91,12.91,0,0,0-2.49-5.2c-2.15-2.78-6.36-3-7.79.35C551.33,300.67,550,305.48,555.5,312.87Z"/><path class="cls-16" d="M555.5,312.87c2.15,2.89,4.39,4,5.63,4.22l1.53-14a12.91,12.91,0,0,0-2.49-5.2c-2.15-2.78-6.36-3-7.79.35C551.33,300.67,550,305.48,555.5,312.87Z"/><path class="cls-16" d="M596.61,310.77l-.11.07a11.33,11.33,0,0,0-2.37,1.81q-3.2,6.3-6.38,12.6a6.28,6.28,0,0,0,1.78.38h.08"/><path class="cls-16" d="M596.61,310.77l-.11.07a11.33,11.33,0,0,0-2.37,1.81q-3.2,6.3-6.38,12.6a6.28,6.28,0,0,0,1.78.38h.08"/><path class="cls-17" d="M607,313.6c.75-4.38-3.77-7-7.86-5.63-.59.2-1.14.42-1.65.65l-.1.05a14.71,14.71,0,0,0-4.31,2.92L585.27,327a8.35,8.35,0,0,0,2.4.49h.09a15.59,15.59,0,0,0,6.18-1C604.59,322.63,606.42,316.82,607,313.6Zm-12.2,11.19a12.58,12.58,0,0,1-5.16.85,18,18,0,0,0,2.72-4.08l4.28-10.79a14.35,14.35,0,0,1,2.44-1.12c3.33-1.15,7,1,6.34,4.55C604.93,316.84,603.41,321.59,594.77,324.79Z"/><path class="cls-16" d="M596.61,310.77l-.11.07a11.33,11.33,0,0,0-2.37,1.81q-3.2,6.3-6.38,12.6a6.28,6.28,0,0,0,1.78.38h.08"/><path class="cls-16" d="M594.77,324.79a12.58,12.58,0,0,1-5.16.85,18,18,0,0,0,2.72-4.08l4.28-10.79a14.35,14.35,0,0,1,2.44-1.12c3.33-1.15,7,1,6.34,4.55C604.93,316.84,603.41,321.59,594.77,324.79Z"/><path class="cls-16" d="M596.61,310.77l-.11.07a11.33,11.33,0,0,0-2.37,1.81q-3.2,6.3-6.38,12.6a6.28,6.28,0,0,0,1.78.38h.08"/><path class="cls-18" d="M570.92,343l-5.46-1.62a34.21,34.21,0,0,0,2.85-7.09,34.86,34.86,0,0,0,1.11-6.24,21.87,21.87,0,0,0,2.68,1,19.86,19.86,0,0,0,2.67.61,36.38,36.38,0,0,0-2.38,6A35.94,35.94,0,0,0,570.92,343Z"/><polygon class="cls-17" points="598.86 305.11 598.11 306.97 561.9 296.65 562.27 294.25 598.86 305.11"/><path class="cls-15" d="M598,307l-5.78,14.59a17.29,17.29,0,0,1-18,9.78h0l-.21,0-.11,0-.83-.16-.77-.18-.22-.06-.09,0-.1,0-.45-.13-.45-.14-.09,0h0l-.05,0-.21-.07-.75-.27-.78-.32-.3-.13a16.63,16.63,0,0,1-9.41-17.9l2.5-15.56Z"/><path class="cls-15" d="M579,346.37l-.37,1.24-22-6.52.36-1.24a.92.92,0,0,1,1.14-.62l20.21,6A.92.92,0,0,1,579,346.37Z"/><path class="cls-19" d="M553.59,345.11l.92-3.1a1.5,1.5,0,0,1,1.86-1L579,347.7a1.5,1.5,0,0,1,1,1.87l-.92,3.1"/><path class="cls-9" d="M570.08,303.62l-.55-1.74-.53,2a3.66,3.66,0,0,1-2.57,2.61l-1.51.41,1.76.36a3.68,3.68,0,0,1,2.76,2.53l.52,1.71.28-1.54a3.66,3.66,0,0,1,2.34-2.76l2-.73-1.78-.39A3.65,3.65,0,0,1,570.08,303.62Z"/><text class="cls-20" transform="translate(571.36 319.19) rotate(16.54)">1</text><path class="cls-9" d="M564.79,299l-.25-.81-.24.94a1.71,1.71,0,0,1-1.2,1.21l-.7.19.82.17a1.71,1.71,0,0,1,1.28,1.17l.24.8.13-.71a1.71,1.71,0,0,1,1.09-1.29l.92-.34-.83-.18A1.72,1.72,0,0,1,564.79,299Z"/></g></g></svg>